<svg width="201" height="44" viewBox="0 0 201 44" fill="none" xmlns="http://www.w3.org/2000/svg">
<path d="M0.214625 33V31.128L6.11863 30.456H6.64663V33H0.214625ZM4.10263 33C4.16663 30.792 4.19863 28.536 4.19863 26.232C4.23063 23.928 4.24663 21.608 4.24663 19.272V17.304C4.24663 15.032 4.23063 12.744 4.19863 10.44C4.19863 8.136 4.16663 5.848 4.10263 3.576H9.14263C9.07863 5.816 9.04663 8.088 9.04663 10.392C9.04663 12.696 9.04663 15 9.04663 17.304V18.696C9.04663 21.288 9.04663 23.752 9.04663 26.088C9.04663 28.424 9.07863 30.728 9.14263 33H4.10263ZM6.64663 33V30.84H11.5426C14.1986 30.84 16.1986 30.344 17.5426 29.352C18.8866 28.328 19.5586 26.856 19.5586 24.936C19.5586 22.888 18.8866 21.352 17.5426 20.328C16.2306 19.304 14.1346 18.792 11.2546 18.792H6.64663V16.728H11.1586C13.6546 16.728 15.4626 16.28 16.5826 15.384C17.7346 14.456 18.3106 13.016 18.3106 11.064C18.3106 9.112 17.7666 7.736 16.6786 6.936C15.5906 6.136 13.9906 5.736 11.8786 5.736H6.64663V3.576H13.3666C16.5346 3.576 18.9346 4.248 20.5666 5.592C22.2306 6.936 23.0626 8.648 23.0626 10.728C23.0626 12.424 22.4226 13.944 21.1426 15.288C19.8626 16.632 17.6866 17.496 14.6146 17.88V17.496C18.1666 17.752 20.7106 18.568 22.2466 19.944C23.8146 21.32 24.5986 22.984 24.5986 24.936C24.5986 26.248 24.1986 27.528 23.3986 28.776C22.6306 29.992 21.3506 31 19.5586 31.8C17.7986 32.6 15.4306 33 12.4546 33H6.64663ZM0.214625 5.496V3.576H6.64663V6.12H6.11863L0.214625 5.496ZM38.279 33.528C35.271 33.528 32.839 32.584 30.983 30.696C29.127 28.776 28.199 26.104 28.199 22.68C28.199 20.376 28.679 18.392 29.639 16.728C30.599 15.032 31.863 13.72 33.431 12.792C34.999 11.864 36.711 11.4 38.567 11.4C40.999 11.4 42.999 12.168 44.567 13.704C46.167 15.24 46.967 17.352 46.967 20.04C46.967 20.52 46.951 20.984 46.919 21.432C46.887 21.848 46.823 22.2 46.727 22.488H30.167V20.52H40.103C41.159 20.52 41.863 20.296 42.215 19.848C42.567 19.4 42.743 18.824 42.743 18.12C42.743 16.808 42.311 15.704 41.447 14.808C40.615 13.88 39.575 13.416 38.327 13.416C37.463 13.416 36.599 13.704 35.735 14.28C34.903 14.856 34.199 15.768 33.623 17.016C33.079 18.264 32.807 19.944 32.807 22.056C32.807 24.84 33.447 26.936 34.727 28.344C36.039 29.752 37.719 30.456 39.767 30.456C41.111 30.456 42.247 30.184 43.175 29.64C44.135 29.096 44.999 28.392 45.767 27.528L46.871 28.488C46.071 30.088 44.951 31.336 43.511 32.232C42.071 33.096 40.327 33.528 38.279 33.528ZM67.0168 33C67.0488 32.328 67.0648 31.448 67.0648 30.36C67.0968 29.272 67.1128 28.136 67.1128 26.952C67.1448 25.736 67.1608 24.664 67.1608 23.736V19.8C67.1608 17.912 66.8888 16.6 66.3448 15.864C65.8328 15.128 64.9848 14.76 63.8008 14.76C62.7448 14.76 61.7208 15.016 60.7288 15.528C59.7368 16.008 58.6488 16.776 57.4648 17.832L57.0328 15.912H57.4648C58.5848 14.504 59.8808 13.4 61.3528 12.6C62.8248 11.8 64.2968 11.4 65.7688 11.4C67.6568 11.4 69.0968 12.04 70.0888 13.32C71.0808 14.568 71.5768 16.6 71.5768 19.416V23.736C71.5768 24.664 71.5768 25.736 71.5768 26.952C71.6088 28.136 71.6248 29.272 71.6248 30.36C71.6568 31.448 71.6888 32.328 71.7208 33H67.0168ZM50.6008 33V31.32L55.3047 30.456H56.7928L61.1608 31.32V33H50.6008ZM53.6728 33C53.7048 32.328 53.7208 31.448 53.7208 30.36C53.7528 29.24 53.7688 28.088 53.7688 26.904C53.7688 25.688 53.7688 24.632 53.7688 23.736V21.528C53.7688 20.344 53.7688 19.368 53.7688 18.6C53.7688 17.832 53.7368 17 53.6728 16.104L50.3128 15.72V14.088L56.9848 11.4L57.7048 11.832L58.1848 16.92V23.736C58.1848 24.632 58.1848 25.688 58.1848 26.904C58.1848 28.088 58.2008 29.24 58.2328 30.36C58.2648 31.448 58.2968 32.328 58.3288 33H53.6728ZM64.0408 33V31.32L68.6968 30.456H70.1848L74.5528 31.32V33H64.0408ZM76.0693 43.896C74.7252 43.896 73.7012 43.608 72.9972 43.032C72.2932 42.456 71.8932 41.848 71.7972 41.208C71.9892 40.536 72.3412 40.024 72.8532 39.672C73.3652 39.32 73.9572 39.144 74.6292 39.144C75.7812 39.144 76.9333 39.672 78.0853 40.728L79.9573 42.408L76.8853 43.272L76.7893 42.312C77.3973 42.312 77.9413 42.184 78.4213 41.928C78.9333 41.672 79.3333 41.128 79.6213 40.296C79.9413 39.368 80.1493 37.96 80.2453 36.072C80.3733 34.184 80.4373 31.72 80.4373 28.68V21.672C80.4373 20.456 80.4213 19.448 80.3893 18.648C80.3573 17.848 80.3253 17 80.2933 16.104L76.9333 15.72V14.088L84.1333 11.4L84.8053 11.832L84.6613 17.928V29.016C84.6613 31.256 84.5973 33.144 84.4693 34.68C84.3413 36.248 84.0693 37.56 83.6533 38.616C83.2693 39.672 82.6933 40.6 81.9253 41.4C81.0613 42.232 80.1813 42.856 79.2853 43.272C78.3893 43.688 77.3173 43.896 76.0693 43.896ZM82.5493 6.792C81.6853 6.792 80.9493 6.52 80.3413 5.976C79.7333 5.432 79.4293 4.728 79.4293 3.864C79.4293 2.968 79.7333 2.248 80.3413 1.704C80.9493 1.16 81.6853 0.887999 82.5493 0.887999C83.4133 0.887999 84.1493 1.16 84.7573 1.704C85.3653 2.248 85.6693 2.968 85.6693 3.864C85.6693 4.728 85.3653 5.432 84.7573 5.976C84.1493 6.52 83.4133 6.792 82.5493 6.792ZM95.978 33.528C94.314 33.528 92.922 33.08 91.802 32.184C90.682 31.288 90.122 29.912 90.122 28.056C90.122 27.16 90.314 26.344 90.698 25.608C91.114 24.84 91.866 24.104 92.954 23.4C94.042 22.696 95.61 21.976 97.658 21.24C98.586 20.952 99.69 20.632 100.97 20.28C102.25 19.928 103.45 19.64 104.57 19.416V21.048C103.578 21.272 102.506 21.56 101.354 21.912C100.202 22.264 99.322 22.568 98.714 22.824C96.954 23.528 95.818 24.264 95.306 25.032C94.794 25.8 94.538 26.568 94.538 27.336C94.538 28.488 94.858 29.32 95.498 29.832C96.138 30.344 96.922 30.6 97.85 30.6C98.33 30.6 98.778 30.52 99.194 30.36C99.642 30.2 100.202 29.912 100.874 29.496C101.546 29.048 102.474 28.376 103.658 27.48L104.234 29.784H102.794C101.546 31.064 100.442 32.008 99.482 32.616C98.554 33.224 97.386 33.528 95.978 33.528ZM106.586 33.48C105.306 33.48 104.282 33.096 103.514 32.328C102.746 31.528 102.346 30.456 102.314 29.112V18.744C102.314 16.664 102.01 15.256 101.402 14.52C100.794 13.784 99.754 13.416 98.282 13.416C97.77 13.416 97.178 13.48 96.506 13.608C95.866 13.704 95.13 13.896 94.298 14.184L96.362 12.744L95.45 16.344C95.098 18.008 94.266 18.84 92.954 18.84C91.642 18.84 90.89 18.232 90.698 17.016C91.05 15.32 92.01 13.96 93.578 12.936C95.178 11.912 97.194 11.4 99.626 11.4C102.026 11.4 103.786 11.992 104.906 13.176C106.058 14.36 106.634 16.376 106.634 19.224V28.68C106.634 29.544 106.762 30.152 107.018 30.504C107.306 30.856 107.69 31.032 108.17 31.032C108.746 31.032 109.274 30.712 109.754 30.072L110.714 30.984C110.17 31.912 109.562 32.568 108.89 32.952C108.25 33.304 107.482 33.48 106.586 33.48ZM142.09 33C142.122 32.328 142.138 31.448 142.138 30.36C142.17 29.272 142.186 28.136 142.186 26.952C142.218 25.736 142.234 24.664 142.234 23.736V19.8C142.234 17.848 141.946 16.52 141.37 15.816C140.826 15.112 139.946 14.76 138.73 14.76C137.77 14.76 136.794 15 135.802 15.48C134.842 15.96 133.802 16.744 132.682 17.832L131.962 16.2H132.346C133.562 14.536 134.89 13.32 136.33 12.552C137.77 11.784 139.258 11.4 140.794 11.4C142.65 11.4 144.074 12.008 145.066 13.224C146.058 14.44 146.554 16.408 146.554 19.128V23.736C146.554 24.664 146.554 25.736 146.554 26.952C146.586 28.136 146.602 29.272 146.602 30.36C146.634 31.448 146.666 32.328 146.698 33H142.09ZM112.57 33V31.32L117.273 30.456H118.762L123.13 31.32V33H112.57ZM115.642 33C115.674 32.328 115.69 31.448 115.69 30.36C115.722 29.24 115.738 28.088 115.738 26.904C115.738 25.688 115.738 24.632 115.738 23.736V21.528C115.738 20.344 115.738 19.368 115.738 18.6C115.738 17.832 115.706 17 115.642 16.104L112.282 15.72V14.088L118.954 11.4L119.674 11.832L120.154 16.92V23.736C120.154 24.632 120.154 25.688 120.154 26.904C120.154 28.088 120.17 29.24 120.202 30.36C120.234 31.448 120.266 32.328 120.298 33H115.642ZM125.818 33V31.32L130.474 30.456H132.01L136.33 31.32V33H125.818ZM128.89 33C128.922 32.328 128.938 31.448 128.938 30.36C128.97 29.272 128.986 28.136 128.986 26.952C128.986 25.736 128.986 24.664 128.986 23.736V19.896C128.986 17.976 128.714 16.648 128.17 15.912C127.658 15.144 126.794 14.76 125.578 14.76C124.554 14.76 123.562 15.032 122.602 15.576C121.642 16.088 120.602 16.84 119.482 17.832L118.858 16.104H119.338C120.426 14.728 121.69 13.608 123.13 12.744C124.602 11.848 126.09 11.4 127.594 11.4C129.514 11.4 130.954 12.04 131.914 13.32C132.874 14.568 133.354 16.6 133.354 19.416V23.736C133.354 24.664 133.354 25.736 133.354 26.952C133.386 28.136 133.402 29.272 133.402 30.36C133.434 31.448 133.466 32.328 133.498 33H128.89ZM139.066 33V31.32L143.674 30.456H145.21L149.578 31.32V33H139.066ZM152.269 33V31.32L156.877 30.456H158.413L162.829 31.32V33H152.269ZM155.341 33C155.373 32.328 155.389 31.448 155.389 30.36C155.421 29.24 155.437 28.088 155.437 26.904C155.469 25.688 155.485 24.632 155.485 23.736V21.672C155.485 20.456 155.469 19.448 155.437 18.648C155.405 17.848 155.373 17 155.341 16.104L151.933 15.72V14.088L159.229 11.4L159.901 11.832L159.805 17.928V23.736C159.805 24.632 159.805 25.688 159.805 26.904C159.805 28.088 159.805 29.24 159.805 30.36C159.837 31.448 159.869 32.328 159.901 33H155.341ZM157.597 6.792C156.701 6.792 155.949 6.52 155.341 5.976C154.765 5.432 154.477 4.728 154.477 3.864C154.477 2.968 154.765 2.248 155.341 1.704C155.949 1.16 156.701 0.887999 157.597 0.887999C158.461 0.887999 159.197 1.16 159.805 1.704C160.413 2.248 160.717 2.968 160.717 3.864C160.717 4.728 160.413 5.432 159.805 5.976C159.197 6.52 158.461 6.792 157.597 6.792ZM182.189 33C182.221 32.328 182.237 31.448 182.237 30.36C182.269 29.272 182.285 28.136 182.285 26.952C182.317 25.736 182.333 24.664 182.333 23.736V19.8C182.333 17.912 182.061 16.6 181.517 15.864C181.005 15.128 180.157 14.76 178.973 14.76C177.917 14.76 176.893 15.016 175.901 15.528C174.909 16.008 173.821 16.776 172.637 17.832L172.205 15.912H172.637C173.757 14.504 175.053 13.4 176.525 12.6C177.997 11.8 179.469 11.4 180.941 11.4C182.829 11.4 184.269 12.04 185.261 13.32C186.253 14.568 186.749 16.6 186.749 19.416V23.736C186.749 24.664 186.749 25.736 186.749 26.952C186.781 28.136 186.797 29.272 186.797 30.36C186.829 31.448 186.861 32.328 186.893 33H182.189ZM165.773 33V31.32L170.477 30.456H171.965L176.333 31.32V33H165.773ZM168.845 33C168.877 32.328 168.893 31.448 168.893 30.36C168.925 29.24 168.941 28.088 168.941 26.904C168.941 25.688 168.941 24.632 168.941 23.736V21.528C168.941 20.344 168.941 19.368 168.941 18.6C168.941 17.832 168.909 17 168.845 16.104L165.485 15.72V14.088L172.157 11.4L172.877 11.832L173.357 16.92V23.736C173.357 24.632 173.357 25.688 173.357 26.904C173.357 28.088 173.373 29.24 173.405 30.36C173.437 31.448 173.469 32.328 173.501 33H168.845ZM179.213 33V31.32L183.869 30.456H185.357L189.725 31.32V33H179.213ZM197.289 33.48C196.361 33.48 195.577 33.176 194.937 32.568C194.297 31.928 193.977 31.16 193.977 30.264C193.977 29.368 194.297 28.584 194.937 27.912C195.577 27.24 196.361 26.904 197.289 26.904C198.217 26.904 199.001 27.24 199.641 27.912C200.281 28.584 200.601 29.368 200.601 30.264C200.601 31.16 200.281 31.928 199.641 32.568C199.001 33.176 198.217 33.48 197.289 33.48Z" fill="white"/>
</svg>
