<svg width="135" height="30" viewBox="0 0 135 30" fill="none" xmlns="http://www.w3.org/2000/svg">
<rect width="135" height="30" fill="black"/>
<path d="M39.8231 19L39.7111 18.384C40.0004 18.384 40.2104 18.3607 40.3411 18.314C40.4717 18.258 40.5557 18.174 40.5931 18.062C40.6304 17.9407 40.6537 17.782 40.6631 17.586C40.6911 16.9233 40.7144 16.3213 40.7331 15.78C40.7517 15.2387 40.7611 14.7253 40.7611 14.24V12.224C40.7611 11.916 40.6911 11.65 40.5511 11.426C40.4204 11.1927 40.1217 11.076 39.6551 11.076L39.5431 10.404C39.7484 10.4133 39.9397 10.4227 40.1171 10.432C40.2944 10.432 40.4577 10.432 40.6071 10.432C40.8404 10.432 41.0131 10.432 41.1251 10.432C41.2371 10.432 41.3397 10.432 41.4331 10.432C41.5264 10.4227 41.6571 10.4133 41.8251 10.404C42.0864 10.3853 42.3571 10.3713 42.6371 10.362C42.9171 10.3527 43.1364 10.348 43.2951 10.348C44.0977 10.348 44.7417 10.5207 45.2271 10.866C45.7124 11.2113 45.9551 11.706 45.9551 12.35C45.9551 12.7513 45.8524 13.1433 45.6471 13.526C45.4511 13.9087 45.1711 14.1887 44.8071 14.366C45.3484 14.5153 45.7591 14.786 46.0391 15.178C46.3191 15.57 46.4591 16.0227 46.4591 16.536C46.4591 17.1333 46.2911 17.614 45.9551 17.978C45.6191 18.3327 45.1851 18.594 44.6531 18.762C44.1304 18.9207 43.5751 19 42.9871 19H39.8231ZM42.4131 14.156L43.1691 14.128C43.5517 14.1093 43.8457 14.0113 44.0511 13.834C44.2657 13.6473 44.4151 13.428 44.4991 13.176C44.5831 12.924 44.6251 12.6953 44.6251 12.49C44.6251 12.0233 44.4617 11.6547 44.1351 11.384C43.8177 11.1133 43.3977 10.978 42.8751 10.978C42.6977 10.978 42.5064 10.992 42.3011 11.02C42.1051 11.048 41.9511 11.0853 41.8391 11.132C41.8017 11.5427 41.7737 12.0047 41.7551 12.518C41.7457 13.0313 41.7411 13.5727 41.7411 14.142L42.4131 14.156ZM42.8611 18.272C43.5704 18.272 44.1257 18.1227 44.5271 17.824C44.9284 17.516 45.1291 17.0913 45.1291 16.55C45.1291 16.0553 44.9517 15.6493 44.5971 15.332C44.2517 15.0053 43.7291 14.842 43.0291 14.842C42.8331 14.842 42.6091 14.856 42.3571 14.884C42.1051 14.9027 41.8951 14.926 41.7271 14.954V15.43C41.7271 15.8033 41.7364 16.2 41.7551 16.62C41.7831 17.04 41.8157 17.3573 41.8531 17.572C41.9091 17.8613 42.0164 18.0527 42.1751 18.146C42.3431 18.23 42.5717 18.272 42.8611 18.272ZM50.4264 19.21C49.8851 19.21 49.3858 19.098 48.9284 18.874C48.4711 18.65 48.1071 18.3093 47.8364 17.852C47.5658 17.3947 47.4304 16.8113 47.4304 16.102C47.4304 15.346 47.5798 14.6973 47.8784 14.156C48.1771 13.6053 48.5644 13.1853 49.0404 12.896C49.5258 12.6067 50.0391 12.462 50.5804 12.462C51.0378 12.462 51.4484 12.5693 51.8124 12.784C52.1858 12.9987 52.4798 13.316 52.6944 13.736C52.9184 14.156 53.0304 14.674 53.0304 15.29C53.0304 15.3833 53.0304 15.4767 53.0304 15.57C53.0304 15.654 53.0211 15.7473 53.0024 15.85L48.7324 15.878C48.7418 16.3167 48.8071 16.732 48.9284 17.124C49.0498 17.5067 49.2598 17.8193 49.5584 18.062C49.8664 18.3047 50.2911 18.426 50.8324 18.426C51.1964 18.426 51.4998 18.3793 51.7424 18.286C51.9944 18.1927 52.1858 18.0993 52.3164 18.006C52.4564 17.9033 52.5358 17.838 52.5544 17.81L52.7784 18.174C52.7038 18.2673 52.5731 18.398 52.3864 18.566C52.1998 18.7247 51.9431 18.8693 51.6164 19C51.2991 19.14 50.9024 19.21 50.4264 19.21ZM50.3564 13.092C49.9364 13.092 49.5771 13.2927 49.2784 13.694C48.9891 14.086 48.8118 14.632 48.7464 15.332L50.9864 15.108H51.6724C51.6724 14.7627 51.6211 14.436 51.5184 14.128C51.4251 13.82 51.2804 13.5727 51.0844 13.386C50.8978 13.19 50.6551 13.092 50.3564 13.092ZM54.2856 19L54.2016 18.328C54.2483 18.3373 54.295 18.342 54.3416 18.342C54.3883 18.342 54.435 18.342 54.4816 18.342C54.7243 18.342 54.9343 18.2953 55.1116 18.202C55.2983 18.0993 55.401 17.9267 55.4196 17.684C55.4663 17.208 55.4896 16.718 55.4896 16.214C55.499 15.71 55.5036 15.2807 55.5036 14.926C55.5036 14.534 55.485 14.2167 55.4476 13.974C55.4103 13.7313 55.2936 13.554 55.0976 13.442C54.911 13.3207 54.5936 13.2553 54.1456 13.246L54.0756 12.602C54.2903 12.602 54.5283 12.5973 54.7896 12.588C55.0603 12.5693 55.3263 12.5507 55.5876 12.532C55.8583 12.5133 56.0916 12.4993 56.2876 12.49C56.493 12.4713 56.633 12.4573 56.7076 12.448C56.7076 12.4947 56.6936 12.6067 56.6656 12.784C56.647 12.952 56.6236 13.1293 56.5956 13.316C56.5676 13.5027 56.5396 13.6427 56.5116 13.736C56.7076 13.512 56.9503 13.302 57.2396 13.106C57.529 12.9007 57.8416 12.7373 58.1776 12.616C58.5136 12.4853 58.8543 12.42 59.1996 12.42C59.6103 12.42 59.9556 12.5273 60.2356 12.742C60.5156 12.9473 60.7023 13.3067 60.7956 13.82C60.8143 13.8947 60.8283 14.0347 60.8376 14.24C60.8563 14.4453 60.861 14.6927 60.8516 14.982L60.8236 16.102C60.8143 16.5313 60.8003 16.844 60.7816 17.04C60.7723 17.236 60.7676 17.3853 60.7676 17.488C60.7676 17.7773 60.819 17.992 60.9216 18.132C61.0243 18.272 61.1503 18.3607 61.2996 18.398C61.449 18.4353 61.5936 18.454 61.7336 18.454L61.8316 19H58.4856L58.3736 18.412H58.6536C58.9523 18.412 59.1763 18.356 59.3256 18.244C59.475 18.1227 59.573 17.8893 59.6196 17.544C59.6383 17.4133 59.6523 17.2453 59.6616 17.04C59.6803 16.8253 59.6896 16.606 59.6896 16.382C59.699 16.158 59.7036 15.962 59.7036 15.794C59.7036 15.5327 59.6943 15.2807 59.6756 15.038C59.6663 14.7953 59.6523 14.6087 59.6336 14.478C59.5776 14.114 59.4376 13.8527 59.2136 13.694C58.999 13.526 58.7283 13.442 58.4016 13.442C57.9816 13.442 57.627 13.5353 57.3376 13.722C57.0483 13.9087 56.843 14.072 56.7216 14.212C56.703 14.744 56.6843 15.304 56.6656 15.892C56.6563 16.4707 56.6516 17.0167 56.6516 17.53C56.6516 17.8193 56.6983 18.034 56.7916 18.174C56.8943 18.3047 57.0156 18.3887 57.1556 18.426C57.2956 18.4633 57.4356 18.482 57.5756 18.482L57.6736 19H54.2856ZM63.1066 21.842C62.8173 21.842 62.5466 21.8093 62.2946 21.744C62.0519 21.6787 61.8933 21.6273 61.8186 21.59L62.0566 21.044C62.1313 21.0533 62.2013 21.0627 62.2666 21.072C62.3319 21.0907 62.3973 21.1 62.4626 21.1C62.8733 21.1 63.2186 20.9227 63.4986 20.568C63.7879 20.2227 63.9653 19.7093 64.0306 19.028C64.0679 18.6733 64.0866 18.3187 64.0866 17.964C64.0959 17.6093 64.1006 17.2687 64.1006 16.942C64.1006 16.2793 64.0866 15.6867 64.0586 15.164C64.0399 14.6413 64.0166 14.2727 63.9886 14.058C63.9606 13.8153 63.8486 13.624 63.6526 13.484C63.4566 13.3347 63.1113 13.26 62.6166 13.26L62.5606 12.616C62.9059 12.616 63.2513 12.6113 63.5966 12.602C63.9513 12.5833 64.2686 12.5647 64.5486 12.546C64.8379 12.518 65.0573 12.4947 65.2066 12.476C65.1879 12.756 65.1693 13.1247 65.1506 13.582C65.1413 14.0393 65.1319 14.5387 65.1226 15.08C65.1133 15.612 65.1039 16.144 65.0946 16.676C65.0946 17.1987 65.0946 17.67 65.0946 18.09V19.182C65.0946 20.0967 64.9219 20.7687 64.5766 21.198C64.2313 21.6273 63.7413 21.842 63.1066 21.842ZM64.2826 11.552C64.0306 11.552 63.8299 11.4773 63.6806 11.328C63.5313 11.1787 63.4566 10.9827 63.4566 10.74C63.4566 10.4693 63.5406 10.2547 63.7086 10.096C63.8859 9.928 64.0913 9.844 64.3246 9.844C64.5579 9.844 64.7586 9.91867 64.9266 10.068C65.0946 10.2173 65.1786 10.4227 65.1786 10.684C65.1786 10.9453 65.0946 11.1553 64.9266 11.314C64.7586 11.4727 64.5439 11.552 64.2826 11.552ZM67.7465 19.14C67.2145 19.14 66.7758 19.014 66.4305 18.762C66.0852 18.51 65.9125 18.1227 65.9125 17.6C65.9125 17.0773 66.1038 16.6387 66.4865 16.284C66.8785 15.92 67.4945 15.6353 68.3345 15.43C68.6425 15.3553 68.9318 15.2993 69.2025 15.262C69.4825 15.2247 69.7065 15.1967 69.8745 15.178C69.8652 14.6927 69.8325 14.324 69.7765 14.072C69.6925 13.6707 69.5385 13.3953 69.3145 13.246C69.0905 13.0967 68.8572 13.022 68.6145 13.022C68.3905 13.022 68.1945 13.0687 68.0265 13.162C67.8585 13.246 67.7138 13.3487 67.5925 13.47C67.5272 13.6473 67.4712 13.834 67.4245 14.03C67.3778 14.2167 67.3452 14.4313 67.3265 14.674L66.3745 14.772C66.3558 14.5853 66.3418 14.3987 66.3325 14.212C66.3232 14.0253 66.3185 13.8573 66.3185 13.708C66.3185 13.568 66.3185 13.456 66.3185 13.372C66.3278 13.288 66.3372 13.2273 66.3465 13.19C66.6732 13.0127 67.0698 12.84 67.5365 12.672C68.0125 12.504 68.5632 12.42 69.1885 12.42C69.8698 12.42 70.3505 12.5647 70.6305 12.854C70.9105 13.134 71.0505 13.638 71.0505 14.366C71.0505 14.534 71.0458 14.702 71.0365 14.87C71.0272 15.0287 71.0132 15.2107 70.9945 15.416C70.9758 15.724 70.9618 15.976 70.9525 16.172C70.9432 16.368 70.9385 16.5733 70.9385 16.788C70.9385 17.0587 70.9525 17.32 70.9805 17.572C71.0178 17.824 71.0925 18.0293 71.2045 18.188C71.3165 18.3373 71.4985 18.412 71.7505 18.412H71.8905L72.0165 18.832C71.9325 18.8693 71.7925 18.9253 71.5965 19C71.4005 19.0747 71.1812 19.112 70.9385 19.112C70.5932 19.112 70.3458 19.0233 70.1965 18.846C70.0472 18.6687 69.9492 18.426 69.9025 18.118C69.7998 18.258 69.6552 18.4073 69.4685 18.566C69.2818 18.7247 69.0438 18.86 68.7545 18.972C68.4745 19.084 68.1385 19.14 67.7465 19.14ZM67.2845 17.334C67.2845 17.642 67.3732 17.8847 67.5505 18.062C67.7278 18.23 67.9798 18.314 68.3065 18.314C68.6798 18.314 69.0018 18.216 69.2725 18.02C69.5432 17.824 69.7205 17.6233 69.8045 17.418C69.8418 16.998 69.8652 16.5127 69.8745 15.962C69.7718 15.9433 69.6505 15.9247 69.5105 15.906C69.3798 15.878 69.2352 15.864 69.0765 15.864C68.5072 15.864 68.0638 16.0087 67.7465 16.298C67.4385 16.578 67.2845 16.9233 67.2845 17.334ZM72.8077 19L72.7237 18.328C72.7704 18.3373 72.8171 18.342 72.8637 18.342C72.9104 18.342 72.9571 18.342 73.0037 18.342C73.2464 18.342 73.4564 18.2953 73.6337 18.202C73.8204 18.0993 73.9231 17.9267 73.9417 17.684C73.9884 17.208 74.0117 16.718 74.0117 16.214C74.0211 15.71 74.0257 15.2807 74.0257 14.926C74.0257 14.534 74.0024 14.2167 73.9557 13.974C73.9184 13.7313 73.8064 13.554 73.6197 13.442C73.4331 13.3207 73.1157 13.2553 72.6677 13.246L72.5977 12.602C72.8124 12.602 73.0504 12.5973 73.3117 12.588C73.5824 12.5693 73.8484 12.5507 74.1097 12.532C74.3804 12.5133 74.6137 12.4993 74.8097 12.49C75.0151 12.4713 75.1551 12.4573 75.2297 12.448C75.2297 12.4947 75.2157 12.5973 75.1877 12.756C75.1691 12.9147 75.1457 13.0827 75.1177 13.26C75.0897 13.4373 75.0617 13.5727 75.0337 13.666C75.2111 13.4607 75.4351 13.2647 75.7057 13.078C75.9857 12.882 76.2891 12.7233 76.6157 12.602C76.9424 12.4713 77.2831 12.406 77.6377 12.406C78.0111 12.406 78.3331 12.49 78.6037 12.658C78.8744 12.826 79.0611 13.0967 79.1637 13.47C79.4531 13.19 79.8077 12.9427 80.2277 12.728C80.6571 12.5133 81.1097 12.406 81.5857 12.406C82.0057 12.406 82.3604 12.518 82.6497 12.742C82.9391 12.9567 83.1071 13.316 83.1537 13.82C83.1724 13.9973 83.1817 14.1933 83.1817 14.408C83.1911 14.6133 83.1957 14.758 83.1957 14.842L83.1677 16.382L83.1257 17.726C83.1164 18.006 83.2004 18.1973 83.3777 18.3C83.5551 18.4027 83.7651 18.454 84.0077 18.454L84.1057 19H80.9837L80.8717 18.426H81.0117C81.2544 18.426 81.4504 18.37 81.5997 18.258C81.7491 18.146 81.8517 17.9033 81.9077 17.53C81.9357 17.334 81.9544 17.0633 81.9637 16.718C81.9824 16.3633 81.9917 16.0553 81.9917 15.794C81.9917 15.2247 81.9684 14.786 81.9217 14.478C81.8657 14.1047 81.7397 13.834 81.5437 13.666C81.3477 13.498 81.0817 13.414 80.7457 13.414C80.3631 13.414 80.0411 13.4933 79.7797 13.652C79.5184 13.8013 79.3364 13.932 79.2337 14.044C79.2431 14.1933 79.2477 14.3473 79.2477 14.506C79.2571 14.6553 79.2617 14.7673 79.2617 14.842L79.2337 16.382L79.1917 17.726C79.1824 18.006 79.2664 18.1973 79.4437 18.3C79.6211 18.4027 79.8311 18.454 80.0737 18.454L80.1717 19H77.0497L76.9377 18.37H77.0777C77.3204 18.37 77.5164 18.3233 77.6657 18.23C77.8244 18.1273 77.9271 17.894 77.9737 17.53C78.0017 17.334 78.0204 17.0633 78.0297 16.718C78.0484 16.3633 78.0577 16.0553 78.0577 15.794C78.0577 15.2247 78.0344 14.786 77.9877 14.478C77.9317 14.1047 77.8057 13.834 77.6097 13.666C77.4137 13.498 77.1477 13.414 76.8117 13.414C76.5317 13.414 76.2844 13.4607 76.0697 13.554C75.8551 13.638 75.6777 13.736 75.5377 13.848C75.3977 13.9507 75.2997 14.0347 75.2437 14.1C75.2251 14.6507 75.2064 15.2293 75.1877 15.836C75.1784 16.4333 75.1737 16.998 75.1737 17.53C75.1737 17.8193 75.2204 18.034 75.3137 18.174C75.4164 18.3047 75.5377 18.3887 75.6777 18.426C75.8177 18.4633 75.9577 18.482 76.0977 18.482L76.1957 19H72.8077ZM84.9047 19L84.7927 18.342H84.9327C85.2874 18.342 85.5487 18.272 85.7167 18.132C85.8941 17.992 86.0014 17.7913 86.0387 17.53C86.0574 17.3807 86.0761 17.194 86.0947 16.97C86.1227 16.746 86.1367 16.5127 86.1367 16.27C86.1367 15.8313 86.1321 15.3973 86.1227 14.968C86.1227 14.5293 86.1134 14.114 86.0947 13.722C86.0854 13.4887 85.9827 13.3487 85.7867 13.302C85.6001 13.246 85.2967 13.218 84.8767 13.218L84.8067 12.574C85.0214 12.574 85.2641 12.5647 85.5347 12.546C85.8054 12.518 86.0714 12.49 86.3327 12.462C86.6034 12.434 86.8367 12.406 87.0327 12.378C87.2287 12.35 87.3594 12.3313 87.4247 12.322C87.3594 12.91 87.3034 13.5073 87.2567 14.114C87.2194 14.7113 87.1914 15.2667 87.1727 15.78C87.1541 16.284 87.1447 16.6993 87.1447 17.026C87.1447 17.6233 87.2241 18.0107 87.3827 18.188C87.5507 18.3653 87.7887 18.454 88.0967 18.454H88.1527L88.2647 19H84.9047ZM86.4447 11.972C86.1927 11.972 85.9921 11.8973 85.8427 11.748C85.6934 11.5987 85.6187 11.4027 85.6187 11.16C85.6187 10.8893 85.7027 10.6747 85.8707 10.516C86.0481 10.348 86.2534 10.264 86.4867 10.264C86.7201 10.264 86.9207 10.3387 87.0887 10.488C87.2567 10.6373 87.3407 10.8427 87.3407 11.104C87.3407 11.3653 87.2567 11.5753 87.0887 11.734C86.9207 11.8927 86.7061 11.972 86.4447 11.972ZM89.4223 19L89.3383 18.328C89.385 18.3373 89.4317 18.342 89.4783 18.342C89.525 18.342 89.5717 18.342 89.6183 18.342C89.861 18.342 90.071 18.2953 90.2483 18.202C90.435 18.0993 90.5377 17.9267 90.5563 17.684C90.603 17.208 90.6263 16.718 90.6263 16.214C90.6357 15.71 90.6403 15.2807 90.6403 14.926C90.6403 14.534 90.6217 14.2167 90.5843 13.974C90.547 13.7313 90.4303 13.554 90.2343 13.442C90.0477 13.3207 89.7303 13.2553 89.2823 13.246L89.2123 12.602C89.427 12.602 89.665 12.5973 89.9263 12.588C90.197 12.5693 90.463 12.5507 90.7243 12.532C90.995 12.5133 91.2283 12.4993 91.4243 12.49C91.6297 12.4713 91.7697 12.4573 91.8443 12.448C91.8443 12.4947 91.8303 12.6067 91.8023 12.784C91.7837 12.952 91.7603 13.1293 91.7323 13.316C91.7043 13.5027 91.6763 13.6427 91.6483 13.736C91.8443 13.512 92.087 13.302 92.3763 13.106C92.6657 12.9007 92.9783 12.7373 93.3143 12.616C93.6503 12.4853 93.991 12.42 94.3363 12.42C94.747 12.42 95.0923 12.5273 95.3723 12.742C95.6523 12.9473 95.839 13.3067 95.9323 13.82C95.951 13.8947 95.965 14.0347 95.9743 14.24C95.993 14.4453 95.9977 14.6927 95.9883 14.982L95.9603 16.102C95.951 16.5313 95.937 16.844 95.9183 17.04C95.909 17.236 95.9043 17.3853 95.9043 17.488C95.9043 17.7773 95.9557 17.992 96.0583 18.132C96.161 18.272 96.287 18.3607 96.4363 18.398C96.5857 18.4353 96.7303 18.454 96.8703 18.454L96.9683 19H93.6223L93.5103 18.412H93.7903C94.089 18.412 94.313 18.356 94.4623 18.244C94.6117 18.1227 94.7097 17.8893 94.7563 17.544C94.775 17.4133 94.789 17.2453 94.7983 17.04C94.817 16.8253 94.8263 16.606 94.8263 16.382C94.8357 16.158 94.8403 15.962 94.8403 15.794C94.8403 15.5327 94.831 15.2807 94.8123 15.038C94.803 14.7953 94.789 14.6087 94.7703 14.478C94.7143 14.114 94.5743 13.8527 94.3503 13.694C94.1357 13.526 93.865 13.442 93.5383 13.442C93.1183 13.442 92.7637 13.5353 92.4743 13.722C92.185 13.9087 91.9797 14.072 91.8583 14.212C91.8397 14.744 91.821 15.304 91.8023 15.892C91.793 16.4707 91.7883 17.0167 91.7883 17.53C91.7883 17.8193 91.835 18.034 91.9283 18.174C92.031 18.3047 92.1523 18.3887 92.2923 18.426C92.4323 18.4633 92.5723 18.482 92.7123 18.482L92.8103 19H89.4223ZM98.6562 19.1201C98.5723 19.1201 98.459 19.0439 98.3164 18.8916C98.1758 18.7393 98.1055 18.6162 98.1055 18.5225C98.1055 18.4287 98.1836 18.3135 98.3398 18.1768C98.4961 18.0381 98.6191 17.9688 98.709 17.9688C98.8008 17.9688 98.9131 18.0479 99.0459 18.2061C99.1787 18.3643 99.2451 18.4893 99.2451 18.5811C99.2451 18.6709 99.168 18.7832 99.0137 18.918C98.8613 19.0527 98.7422 19.1201 98.6562 19.1201Z" fill="white"/>
</svg>
